<svg width="55" height="44" viewBox="0 0 55 44" fill="none" xmlns="http://www.w3.org/2000/svg">
<path d="M45.9128 27.5687H55V30.6561H52.0006V44H48.8153V30.6561H45.9047V27.5687H45.9128ZM37.1895 31.9332L34.9581 37.5908H39.4047L37.1895 31.9332ZM19.8236 21.8868H7.34085C7.18724 21.8868 7.03363 21.903 6.88811 21.9111H0V30.3086V32.4343V35.3601C0 40.0074 3.29043 43.7737 7.34085 43.7737H14.9162H19.8236H27.1645V35.3601V33.2506V30.3005C27.1645 25.6532 23.874 21.8868 19.8236 21.8868ZM41.8705 11.2424H38.7175H33.8343C31.223 11.2424 29.1048 13.6752 29.1048 16.6576V18.5488V19.9148V25.3218H33.7131C33.7535 25.3218 33.7858 25.338 33.8262 25.338H41.8624C44.4738 25.338 46.592 22.9133 46.592 19.9148V18.0154V16.6576V11.2424H41.8705ZM22.249 4.61496H13.8976C13.849 4.61496 13.8005 4.63114 13.7439 4.63114H8.98206V10.2483V11.6708V13.6267C8.98206 16.7384 11.1811 19.2601 13.8976 19.2601H18.9666H22.2409H27.1564V13.6267V12.2204V10.2483C27.1645 7.1447 24.9654 4.61496 22.249 4.61496ZM37.141 0.00809019H35.1602H32.0881C30.4469 0.00809019 29.121 1.53562 29.121 3.4188V4.59878V5.46364V8.85817H32.0153C32.0395 8.85817 32.0638 8.86626 32.0881 8.86626H37.141C38.7822 8.86626 40.108 7.33874 40.108 5.46364V4.26748V3.41071V0H37.141V0.00809019ZM35.613 27.5687H38.766L45.0882 44H41.8301L40.5446 40.6136H33.8101L32.5004 44H29.2422L35.613 27.5687Z" fill="white"/>
</svg>
